<svg width="36" height="36" viewBox="0 0 36 36" fill="none" xmlns="http://www.w3.org/2000/svg">
<path fill-rule="evenodd" clip-rule="evenodd" d="M12.8847 0H14.7433C17.0322 0 18.8791 -2.49508e-08 20.3308 0.195907C21.8378 0.396837 23.107 0.832186 24.115 1.83851C25.123 2.84651 25.555 4.11572 25.7593 5.6227C25.9535 7.07442 25.9535 8.9213 25.9535 11.2102V25.1163H27.3282C29.3442 25.1163 30.9767 26.7488 30.9767 28.7648V28.8837C30.9767 29.2168 31.1091 29.5362 31.3446 29.7717C31.5801 30.0072 31.8995 30.1395 32.2326 30.1395C32.5656 30.1395 32.885 30.0072 33.1206 29.7717C33.3561 29.5362 33.4884 29.2168 33.4884 28.8837V22.253L31.0404 21.4376C30.2905 21.1874 29.6384 20.7078 29.1762 20.0665C28.714 19.4252 28.4652 18.6548 28.4651 17.8644V13.814C28.4651 12.8148 28.862 11.8565 29.5686 11.15C30.2751 10.4434 31.2334 10.0465 32.2326 10.0465H33.475C33.393 9.09128 32.9498 8.20326 32.2359 7.56335C32.1064 7.45115 31.9741 7.34227 31.8391 7.23684L29.7745 5.58586C29.6434 5.48371 29.5339 5.35657 29.4524 5.2118C29.3708 5.06702 29.3187 4.9075 29.2993 4.74247C29.2798 4.57743 29.2933 4.41018 29.3389 4.25039C29.3846 4.09061 29.4615 3.94147 29.5652 3.81162C29.6689 3.68177 29.7973 3.5738 29.943 3.49395C30.0888 3.41411 30.2489 3.36398 30.4142 3.34648C30.5794 3.32897 30.7465 3.34444 30.9057 3.39198C31.065 3.43953 31.2132 3.5182 31.3418 3.62344L33.4348 5.29786C33.6391 5.46195 33.7797 5.57414 33.912 5.69302C35.1495 6.80236 35.8967 8.35705 35.99 10.0164C36 10.1922 36 10.373 36 10.6359V28.8837C36 29.8829 35.6031 30.8412 34.8965 31.5477C34.19 32.2542 33.2317 32.6512 32.2326 32.6512C31.2334 32.6512 30.2751 32.2542 29.5686 31.5477C28.862 30.8412 28.4651 29.8829 28.4651 28.8837V28.7648C28.4647 28.4634 28.3447 28.1745 28.1316 27.9614C27.9185 27.7483 27.6296 27.6283 27.3282 27.6279H25.9535V33.4884H26.3721C26.7052 33.4884 27.0246 33.6207 27.2601 33.8562C27.4956 34.0917 27.6279 34.4111 27.6279 34.7442C27.6279 35.0772 27.4956 35.3967 27.2601 35.6322C27.0246 35.8677 26.7052 36 26.3721 36H1.25581C0.922751 36 0.60333 35.8677 0.367819 35.6322C0.132309 35.3967 0 35.0772 0 34.7442C0 34.4111 0.132309 34.0917 0.367819 33.8562C0.60333 33.6207 0.922751 33.4884 1.25581 33.4884H1.67442V11.2102C1.67442 8.9213 1.67442 7.07442 1.87033 5.6227C2.07126 4.11572 2.5066 2.84651 3.51293 1.83851C4.52093 0.830512 5.79014 0.398512 7.29712 0.195907C8.74884 -2.49508e-08 10.5957 0 12.8847 0ZM4.18605 33.4884H23.4419V11.3023C23.4419 8.89953 23.4385 7.22177 23.2694 5.95758C23.1036 4.72856 22.8006 4.07888 22.3384 3.61507C21.8746 3.15126 21.2249 2.84986 19.9942 2.68409C18.73 2.51498 17.054 2.51163 14.6512 2.51163H12.9767C10.574 2.51163 8.89619 2.51498 7.632 2.68409C6.40298 2.84986 5.7533 3.15293 5.28949 3.61507C4.82567 4.07888 4.52428 4.72856 4.35851 5.95926C4.1894 7.22009 4.18605 8.89786 4.18605 11.3023V33.4884ZM33.4884 19.6074V12.5581H32.2326C31.8995 12.5581 31.5801 12.6904 31.3446 12.926C31.1091 13.1615 30.9767 13.4809 30.9767 13.814V17.8644C30.9767 18.4052 31.3233 18.8858 31.8357 19.0549L33.4884 19.6074ZM11.227 6.69767H16.4009C17.126 6.69767 17.7907 6.69767 18.3299 6.76967C18.926 6.85005 19.5539 7.03758 20.0713 7.55665C20.5887 8.07572 20.7779 8.70195 20.8582 9.29805C20.9302 9.83888 20.9302 10.5036 20.9302 11.227V11.3777C20.9302 12.1027 20.9302 12.7674 20.8582 13.3066C20.7779 13.9027 20.5903 14.5306 20.0713 15.048C19.5522 15.5654 18.926 15.7546 18.3299 15.835C17.789 15.907 17.1243 15.907 16.4009 15.907H11.227C10.502 15.907 9.83721 15.907 9.29805 15.835C8.70195 15.7546 8.07405 15.5671 7.55665 15.048C7.03926 14.5289 6.85005 13.9027 6.76967 13.3066C6.69767 12.7658 6.69767 12.101 6.69767 11.3777V11.227C6.69767 10.502 6.69767 9.83721 6.76967 9.29805C6.85005 8.70195 7.03758 8.07405 7.55665 7.55665C8.07572 7.03926 8.70195 6.85005 9.29805 6.76967C9.83888 6.69767 10.5036 6.69767 11.227 6.69767ZM9.33656 9.32986L9.33153 9.33153L9.32986 9.33656L9.32149 9.3533C9.28948 9.44363 9.26868 9.53754 9.25954 9.63293C9.21265 9.98456 9.2093 10.4768 9.2093 11.3023C9.2093 12.1278 9.21265 12.6201 9.25954 12.9717C9.26999 13.0731 9.29363 13.1728 9.32986 13.2681L9.33153 13.2731L9.33656 13.2748L9.3533 13.2832C9.39014 13.2982 9.47051 13.3233 9.63293 13.3451C9.98456 13.392 10.4768 13.3953 11.3023 13.3953H16.3256C17.1511 13.3953 17.6433 13.392 17.995 13.3451C18.0964 13.3347 18.196 13.311 18.2913 13.2748L18.2964 13.2731L18.298 13.2681L18.3064 13.2513C18.3384 13.161 18.3592 13.0671 18.3684 12.9717C18.4153 12.6201 18.4186 12.1278 18.4186 11.3023C18.4186 10.4768 18.4153 9.98456 18.3684 9.63293C18.3579 9.5315 18.3343 9.43187 18.298 9.33656L18.2964 9.33153L18.2913 9.32986L18.2746 9.32149C18.1843 9.28948 18.0904 9.26868 17.995 9.25954C17.6433 9.21265 17.1511 9.2093 16.3256 9.2093H11.3023C10.4768 9.2093 9.98456 9.21265 9.63293 9.25954C9.5315 9.26999 9.43187 9.29363 9.33656 9.32986ZM8.37209 26.3721C8.37209 26.039 8.5044 25.7196 8.73991 25.4841C8.97542 25.2486 9.29484 25.1163 9.62791 25.1163H18C18.3331 25.1163 18.6525 25.2486 18.888 25.4841C19.1235 25.7196 19.2558 26.039 19.2558 26.3721C19.2558 26.7052 19.1235 27.0246 18.888 27.2601C18.6525 27.4956 18.3331 27.6279 18 27.6279H9.62791C9.29484 27.6279 8.97542 27.4956 8.73991 27.2601C8.5044 27.0246 8.37209 26.7052 8.37209 26.3721Z" fill="#405AFF"/>
</svg>
