<svg width="35" height="36" viewBox="0 0 35 36" fill="none" xmlns="http://www.w3.org/2000/svg">
<path d="M33.1081 0.5C33.6099 0.5 34.0911 0.675595 34.4459 0.988155C34.8007 1.30072 35 1.72464 35 2.16667V10.5C35 10.942 34.8007 11.3659 34.4459 11.6785C34.0911 11.9911 33.6099 12.1667 33.1081 12.1667H23.6486V33.8333C23.6486 34.2754 23.4493 34.6993 23.0945 35.0118C22.7397 35.3244 22.2585 35.5 21.7568 35.5H14.1892C13.6874 35.5 13.2062 35.3244 12.8514 35.0118C12.4966 34.6993 12.2973 34.2754 12.2973 33.8333V12.1667H1.89189C1.39013 12.1667 0.908921 11.9911 0.554122 11.6785C0.199324 11.3659 0 10.942 0 10.5V6.53C0.000187578 6.22056 0.0981573 5.91728 0.282937 5.65412C0.467716 5.39096 0.732009 5.17832 1.04622 5.04L11.3514 0.5H33.1081ZM23.6486 3.83333H12.2443L3.78378 7.56V8.83333H16.0811V32.1667H19.8649V8.83333H23.6486V3.83333ZM31.2162 3.83333H27.4324V8.83333H31.2162V3.83333Z" fill="#405AFF"/>
</svg>
