<svg width="32" height="26" viewBox="0 0 32 26" fill="none" xmlns="http://www.w3.org/2000/svg">
<path d="M7.24996 24.6666V11.5416C4.33329 11.5416 1.41663 12.2883 1.41663 15.2822V18.8333C1.41663 20.3803 2.03121 21.8641 3.12517 22.958C4.21913 24.052 5.70286 24.6666 7.24996 24.6666ZM7.24996 24.6666V10.0833C7.24996 7.76261 8.17183 5.53701 9.81277 3.89607C11.4537 2.25512 13.6793 1.33325 16 1.33325C18.3206 1.33325 20.5462 2.25512 22.1871 3.89607C23.8281 5.53701 24.75 7.76261 24.75 10.0833V24.6666M24.75 24.6666V11.5416C27.6666 11.5416 30.5833 12.2883 30.5833 15.2822V18.8333C30.5833 20.3803 29.9687 21.8641 28.8747 22.958C27.7808 24.052 26.2971 24.6666 24.75 24.6666Z" stroke="#405AFF" stroke-width="2" stroke-linecap="round" stroke-linejoin="round"/>
</svg>
