<svg width="24" height="32" viewBox="0 0 24 32" fill="none" xmlns="http://www.w3.org/2000/svg">
<path d="M16.1016 28.8516H7.89844C7.74805 28.8516 7.625 28.9746 7.625 29.125V30.2188C7.625 30.8237 8.11377 31.3125 8.71875 31.3125H15.2812C15.8862 31.3125 16.375 30.8237 16.375 30.2188V29.125C16.375 28.9746 16.252 28.8516 16.1016 28.8516ZM12 0.6875C5.81006 0.6875 0.789062 5.7085 0.789062 11.8984C0.789062 16.0479 3.04492 19.6709 6.39453 21.6089V25.5703C6.39453 26.1753 6.8833 26.6641 7.48828 26.6641H16.5117C17.1167 26.6641 17.6055 26.1753 17.6055 25.5703V21.6089C20.9551 19.6709 23.2109 16.0479 23.2109 11.8984C23.2109 5.7085 18.1899 0.6875 12 0.6875ZM16.3716 19.4795L15.1445 20.1904V24.2031H8.85547V20.1904L7.62842 19.4795C4.93848 17.9243 3.25 15.0601 3.25 11.8984C3.25 7.06543 7.16699 3.14844 12 3.14844C16.833 3.14844 20.75 7.06543 20.75 11.8984C20.75 15.0601 19.0615 17.9243 16.3716 19.4795Z" fill="#405AFF"/>
</svg>
