<svg width="30" height="38" viewBox="0 0 30 38" fill="none" xmlns="http://www.w3.org/2000/svg">
<path d="M15 3.50004C11.9058 3.50004 8.93834 4.7292 6.75042 6.91713C4.5625 9.10505 3.33333 12.0725 3.33333 15.1667C3.33333 19.9367 6.30333 24.5384 9.56333 28.1034C11.2302 29.9194 13.0491 31.5899 15 33.0967C15.2911 32.8734 15.6328 32.6012 16.025 32.28C17.5913 30.9938 19.0655 29.5993 20.4367 28.1067C23.6967 24.5384 26.6667 19.9384 26.6667 15.1667C26.6667 12.0725 25.4375 9.10505 23.2496 6.91713C21.0617 4.7292 18.0942 3.50004 15 3.50004ZM15 37.19L14.055 36.54L14.05 36.5367L14.04 36.5284L14.0067 36.505L13.8817 36.4167L13.4317 36.0884C11.1514 34.3747 9.03313 32.4555 7.10333 30.355C3.69667 26.625 0 21.2267 0 15.165C5.92805e-08 11.1868 1.58035 7.37148 4.3934 4.55844C7.20644 1.74539 11.0218 0.165039 15 0.165039C18.9782 0.165039 22.7936 1.74539 25.6066 4.55844C28.4196 7.37148 30 11.1868 30 15.165C30 21.2267 26.3033 26.6267 22.8967 30.3517C20.9674 32.4521 18.8497 34.3713 16.57 36.085C16.3801 36.2269 16.1884 36.3663 15.995 36.5034L15.96 36.5267L15.95 36.535L15.9467 36.5367L15 37.19ZM15 11.8334C14.1159 11.8334 13.2681 12.1846 12.643 12.8097C12.0179 13.4348 11.6667 14.2827 11.6667 15.1667C11.6667 16.0508 12.0179 16.8986 12.643 17.5237C13.2681 18.1488 14.1159 18.5 15 18.5C15.8841 18.5 16.7319 18.1488 17.357 17.5237C17.9821 16.8986 18.3333 16.0508 18.3333 15.1667C18.3333 14.2827 17.9821 13.4348 17.357 12.8097C16.7319 12.1846 15.8841 11.8334 15 11.8334ZM8.33333 15.1667C8.33333 13.3986 9.03571 11.7029 10.286 10.4527C11.5362 9.20242 13.2319 8.50004 15 8.50004C16.7681 8.50004 18.4638 9.20242 19.714 10.4527C20.9643 11.7029 21.6667 13.3986 21.6667 15.1667C21.6667 16.9348 20.9643 18.6305 19.714 19.8808C18.4638 21.131 16.7681 21.8334 15 21.8334C13.2319 21.8334 11.5362 21.131 10.286 19.8808C9.03571 18.6305 8.33333 16.9348 8.33333 15.1667Z" fill="#405AFF"/>
</svg>
