<svg width="23" height="28" viewBox="0 0 23 28" fill="none" xmlns="http://www.w3.org/2000/svg">
<path d="M11.25 2.50125C8.92936 2.50125 6.70376 3.42312 5.06282 5.06407C3.42187 6.70501 2.5 8.9306 2.5 11.2512C2.5 14.8287 4.7275 18.28 7.1725 20.9537C8.42267 22.3158 9.78679 23.5687 11.25 24.6987C11.4683 24.5312 11.7246 24.3271 12.0187 24.0862C13.1935 23.1216 14.2991 22.0757 15.3275 20.9562C17.7725 18.28 20 14.83 20 11.2512C20 8.9306 19.0781 6.70501 17.4372 5.06407C15.7962 3.42312 13.5706 2.50125 11.25 2.50125ZM11.25 27.7687L10.5412 27.2812L10.5375 27.2787L10.53 27.2725L10.505 27.255L10.4113 27.1887L10.0737 26.9425C8.36358 25.6572 6.77484 24.2179 5.3275 22.6425C2.7725 19.845 0 15.7962 0 11.25C4.44604e-08 8.26631 1.18526 5.40483 3.29505 3.29505C5.40483 1.18526 8.26631 0 11.25 0C14.2337 0 17.0952 1.18526 19.205 3.29505C21.3147 5.40483 22.5 8.26631 22.5 11.25C22.5 15.7962 19.7275 19.8462 17.1725 22.64C15.7256 24.2153 14.1372 25.6547 12.4275 26.94C12.2851 27.0464 12.1413 27.151 11.9963 27.2537L11.97 27.2712L11.9625 27.2775L11.96 27.2787L11.25 27.7687ZM11.25 8.75125C10.587 8.75125 9.95107 9.01464 9.48223 9.48348C9.01339 9.95232 8.75 10.5882 8.75 11.2512C8.75 11.9143 9.01339 12.5502 9.48223 13.019C9.95107 13.4879 10.587 13.7512 11.25 13.7512C11.913 13.7512 12.5489 13.4879 13.0178 13.019C13.4866 12.5502 13.75 11.9143 13.75 11.2512C13.75 10.5882 13.4866 9.95232 13.0178 9.48348C12.5489 9.01464 11.913 8.75125 11.25 8.75125ZM6.25 11.2512C6.25 9.92517 6.77678 8.6534 7.71447 7.71572C8.65215 6.77803 9.92392 6.25125 11.25 6.25125C12.5761 6.25125 13.8479 6.77803 14.7855 7.71572C15.7232 8.6534 16.25 9.92517 16.25 11.2512C16.25 12.5773 15.7232 13.8491 14.7855 14.7868C13.8479 15.7245 12.5761 16.2512 11.25 16.2512C9.92392 16.2512 8.65215 15.7245 7.71447 14.7868C6.77678 13.8491 6.25 12.5773 6.25 11.2512Z" fill="white"/>
</svg>
