<svg width="26" height="20" viewBox="0 0 26 20" fill="none" xmlns="http://www.w3.org/2000/svg">
<path fill-rule="evenodd" clip-rule="evenodd" d="M3.25 1.5L12.7 8.5875C12.7865 8.65241 12.8918 8.6875 13 8.6875C13.1082 8.6875 13.2135 8.65241 13.3 8.5875L22.75 1.5H3.25ZM24 2.4375L14.2 9.7875C13.8538 10.0471 13.4327 10.1875 13 10.1875C12.5673 10.1875 12.1462 10.0471 11.8 9.7875L2 2.4375V18.5H24V2.4375ZM1.75 0H24.25C24.5815 0 24.8995 0.131696 25.1339 0.366117C25.3683 0.600537 25.5 0.918479 25.5 1.25V18.75C25.5 19.0815 25.3683 19.3995 25.1339 19.6339C24.8995 19.8683 24.5815 20 24.25 20H1.75C1.41848 20 1.10054 19.8683 0.866116 19.6339C0.631696 19.3995 0.5 19.0815 0.5 18.75V1.25C0.5 0.918479 0.631696 0.600537 0.866116 0.366117C1.10054 0.131696 1.41848 0 1.75 0Z" fill="white"/>
</svg>
