<svg width="34" height="28" viewBox="0 0 34 28" fill="none" xmlns="http://www.w3.org/2000/svg">
<path fill-rule="evenodd" clip-rule="evenodd" d="M3.99998 2.6665L16.6 12.1165C16.7154 12.2031 16.8557 12.2498 17 12.2498C17.1442 12.2498 17.2846 12.2031 17.4 12.1165L30 2.6665H3.99998ZM31.6666 3.9165L18.6 13.7165C18.1384 14.0627 17.577 14.2498 17 14.2498C16.423 14.2498 15.8616 14.0627 15.4 13.7165L2.33331 3.9165V25.3332H31.6666V3.9165ZM1.99998 0.666504H32C32.442 0.666504 32.8659 0.842099 33.1785 1.15466C33.4911 1.46722 33.6666 1.89114 33.6666 2.33317V25.6665C33.6666 26.1085 33.4911 26.5325 33.1785 26.845C32.8659 27.1576 32.442 27.3332 32 27.3332H1.99998C1.55795 27.3332 1.13403 27.1576 0.821468 26.845C0.508908 26.5325 0.333313 26.1085 0.333313 25.6665V2.33317C0.333313 1.89114 0.508908 1.46722 0.821468 1.15466C1.13403 0.842099 1.55795 0.666504 1.99998 0.666504Z" fill="#405AFF"/>
</svg>
