<svg width="31" height="32" viewBox="0 0 31 32" fill="none" xmlns="http://www.w3.org/2000/svg">
<path d="M8.33334 1.5C9.16667 1.5 12.5 9 12.5 9.83333C12.5 11.5 10 13.1667 9.16667 14.8333C8.33334 16.5 10 18.1667 11.6667 19.8333C12.3167 20.4833 15 23.1667 16.6667 22.3333C18.3333 21.5 20 19 21.6667 19C22.5 19 30 22.3333 30 23.1667C30 26.5 27.5 29 25 29.8333C22.5 30.6667 20.8333 30.6667 17.5 29.8333C14.1667 29 11.6667 28.1667 7.5 24C3.33334 19.8333 2.50001 17.3333 1.66667 14C0.833338 10.6667 0.833338 9 1.66667 6.5C2.50001 4 5 1.5 8.33334 1.5Z" stroke="#405AFF" stroke-width="2" stroke-linecap="round" stroke-linejoin="round"/>
</svg>
