<svg width="30" height="30" viewBox="0 0 30 30" fill="none" xmlns="http://www.w3.org/2000/svg">
<path d="M10 3.75C10.625 3.75 13.125 9.375 13.125 10C13.125 11.25 11.25 12.5 10.625 13.75C10 15 11.25 16.25 12.5 17.5C12.9875 17.9875 15 20 16.25 19.375C17.5 18.75 18.75 16.875 20 16.875C20.625 16.875 26.25 19.375 26.25 20C26.25 22.5 24.375 24.375 22.5 25C20.625 25.625 19.375 25.625 16.875 25C14.375 24.375 12.5 23.75 9.375 20.625C6.25 17.5 5.625 15.625 5 13.125C4.375 10.625 4.375 9.375 5 7.5C5.625 5.625 7.5 3.75 10 3.75Z" stroke="white" stroke-width="2" stroke-linecap="round" stroke-linejoin="round"/>
</svg>
