<svg width="26" height="32" viewBox="0 0 26 32" fill="none" xmlns="http://www.w3.org/2000/svg">
<path d="M13 7.88208C16.3152 7.88208 19.4946 9.12623 21.8388 11.3408C24.183 13.5555 25.5 16.5591 25.5 19.691C25.5 22.823 24.183 25.8266 21.8388 28.0412C19.4946 30.2558 16.3152 31.5 13 31.5C9.68479 31.5 6.50537 30.2558 4.16117 28.0412C1.81696 25.8266 0.5 22.823 0.5 19.691C0.5 16.5591 1.81696 13.5555 4.16117 11.3408C6.50537 9.12623 9.68479 7.88208 13 7.88208ZM13 10.8343C10.5136 10.8343 8.12903 11.7674 6.37087 13.4284C4.61272 15.0893 3.625 17.3421 3.625 19.691C3.625 22.04 4.61272 24.2927 6.37087 25.9537C8.12903 27.6146 10.5136 28.5478 13 28.5478C15.4864 28.5478 17.871 27.6146 19.6291 25.9537C21.3873 24.2927 22.375 22.04 22.375 19.691C22.375 17.3421 21.3873 15.0893 19.6291 13.4284C17.871 11.7674 15.4864 10.8343 13 10.8343ZM13 13.0485L15.0656 17.0045L19.6875 17.6392L16.3438 20.7169L17.1328 25.0656L13 23.0123L8.86719 25.0641L9.65625 20.7169L6.3125 17.6378L10.9344 17.003L13 13.0485ZM22.375 0.501476V4.92984L20.2453 6.60966C18.4786 5.7325 16.5488 5.18663 14.5625 5.00217V0.501476H22.375ZM11.4375 0.5V5.00217C9.45184 5.18636 7.52264 5.73172 5.75625 6.60819L3.625 4.92984V0.501476L11.4375 0.5Z" fill="#405AFF"/>
</svg>
