<svg width="22" height="29" viewBox="0 0 22 29" fill="none" xmlns="http://www.w3.org/2000/svg">
<path d="M5.98996 25.1935C5.62662 24.1101 5.31607 23.0074 5.05829 21.8852C4.80162 20.7629 4.6144 19.6252 4.49662 18.4718L2.31329 19.9318C2.1644 20.0396 2.05218 20.1629 1.97662 20.3018C1.90107 20.4407 1.86384 20.5951 1.86496 20.7652V26.4935C1.86496 26.6002 1.90218 26.6751 1.97662 26.7185C2.05107 26.7618 2.13162 26.7618 2.21829 26.7185L5.98996 25.1935ZM10.6733 2.90182C8.99773 4.83071 7.79996 6.82126 7.07996 8.87348C6.35996 10.9257 5.99996 13.1657 5.99996 15.5935C5.99996 17.3246 6.15273 18.9885 6.45829 20.5851C6.76384 22.1818 7.16662 23.6535 7.66662 25.0002H14.3333C14.8333 23.6546 15.2361 22.1829 15.5416 20.5851C15.8472 18.9874 16 17.3235 16 15.5935C16 13.1657 15.64 10.9257 14.92 8.87348C14.2 6.82126 13.0022 4.83015 11.3266 2.90015C11.2644 2.83793 11.2116 2.79182 11.1683 2.76182C11.1238 2.73071 11.0677 2.71515 11 2.71515C10.9322 2.71515 10.8761 2.73071 10.8316 2.76182C10.7872 2.79293 10.7344 2.83904 10.6733 2.90015M11 15.8335C10.2966 15.8335 9.7044 15.5924 9.22329 15.1102C8.74107 14.629 8.49996 14.0368 8.49996 13.3335C8.49996 12.6301 8.74107 12.0379 9.22329 11.5568C9.70551 11.0757 10.2977 10.8346 11 10.8335C11.7022 10.8324 12.2944 11.0735 12.7766 11.5568C13.2588 12.0379 13.5 12.6301 13.5 13.3335C13.5 14.0368 13.2588 14.629 12.7766 15.1102C12.2944 15.5913 11.7022 15.8324 11 15.8335ZM16.01 25.2252L19.7816 26.7501C19.8672 26.7935 19.9477 26.7879 20.0233 26.7335C20.0977 26.6802 20.135 26.6002 20.135 26.4935V20.8001C20.135 20.629 20.0972 20.469 20.0216 20.3202C19.9472 20.1702 19.835 20.0418 19.685 19.9352L17.5033 18.4735C17.3855 19.6268 17.1977 20.7702 16.94 21.9035C16.6833 23.0357 16.3733 24.1418 16.01 25.2252ZM11.9716 1.25682C13.9194 3.21459 15.3555 5.39515 16.28 7.79848C17.2044 10.2018 17.6666 12.859 17.6666 15.7702C17.6666 15.8979 17.6722 16.0313 17.6833 16.1701C17.6944 16.309 17.6888 16.4535 17.6666 16.6035L20.5583 18.5518C20.945 18.7929 21.2488 19.1152 21.47 19.5185C21.6911 19.9218 21.8016 20.3485 21.8016 20.7985V27.3485C21.8016 27.8263 21.6016 28.1996 21.2016 28.4685C20.8005 28.7374 20.3755 28.7818 19.9266 28.6018L15.1766 26.6668H6.79162L2.04162 28.5702C1.59273 28.7502 1.17329 28.7057 0.783289 28.4368C0.393289 28.1679 0.198845 27.7952 0.199956 27.3185V20.7668C0.199956 20.3179 0.304956 19.8913 0.514956 19.4868C0.724956 19.0835 1.02329 18.7613 1.40996 18.5202L4.33329 16.5702V15.7702C4.33329 12.859 4.79551 10.2018 5.71996 7.79848C6.64329 5.39515 8.0794 3.21459 10.0283 1.25682C10.1583 1.11793 10.3083 1.01737 10.4783 0.95515C10.6483 0.892928 10.8222 0.861816 11 0.861816C11.1777 0.861816 11.3516 0.892928 11.5216 0.95515C11.6916 1.01737 11.8416 1.11904 11.9716 1.25682Z" fill="#405AFF"/>
</svg>
