<svg width="33" height="33" viewBox="0 0 33 33" fill="none" xmlns="http://www.w3.org/2000/svg">
<path d="M8.25022 19.9784L4.12605 24.104L9.28126 29.2592L28.874 9.66652L23.7188 4.50985L20.6256 7.60443L22.6877 9.66652L20.6256 11.7286L18.5621 9.66652L15.469 12.7596L18.5621 15.8542L16.5 17.9163L13.4083 14.8232L10.3138 17.9149L12.3773 19.9784L10.3138 22.0405L8.25022 19.9784ZM24.7498 1.41673L31.9685 8.63548C32.2419 8.90895 32.3955 9.27982 32.3955 9.66652C32.3955 10.0532 32.2419 10.4241 31.9685 10.6976L10.3123 32.3538C10.0388 32.6272 9.66796 32.7808 9.28126 32.7808C8.89456 32.7808 8.5237 32.6272 8.25022 32.3538L1.03147 25.1351C0.895879 24.9996 0.788314 24.8388 0.714924 24.6617C0.641534 24.4847 0.60376 24.2949 0.60376 24.1033C0.60376 23.9116 0.641534 23.7219 0.714924 23.5448C0.788314 23.3678 0.895879 23.207 1.03147 23.0715L22.6877 1.41673C22.9612 1.14333 23.3321 0.989746 23.7188 0.989746C24.1055 0.989746 24.4763 1.14333 24.7498 1.41673Z" fill="#405AFF"/>
</svg>
