<svg width="30" height="30" viewBox="0 0 30 30" fill="none" xmlns="http://www.w3.org/2000/svg">
<path d="M15 0.416504C6.95 0.416504 0.416672 6.94984 0.416672 14.9998C0.416672 23.0498 6.95 29.5832 15 29.5832C23.05 29.5832 29.5833 23.0498 29.5833 14.9998C29.5833 6.94984 23.05 0.416504 15 0.416504ZM21.7667 10.3332C21.5479 12.6373 20.6 18.2373 20.1188 20.8186C19.9146 21.9123 19.5063 22.2769 19.1271 22.3207C18.2813 22.3936 17.6396 21.7665 16.8229 21.2269C15.5396 20.3811 14.8104 19.8561 13.5708 19.0394C12.1271 18.0915 13.0604 17.5665 13.8917 16.7207C14.1104 16.5019 17.8438 13.104 17.9167 12.7978C17.9268 12.7514 17.9255 12.7032 17.9127 12.6575C17.9 12.6117 17.8764 12.5698 17.8438 12.5353C17.7563 12.4623 17.6396 12.4915 17.5375 12.5061C17.4063 12.5353 15.3646 13.8915 11.3833 16.5748C10.8 16.9686 10.275 17.1728 9.80834 17.1582C9.28334 17.1436 8.29167 16.8665 7.54792 16.6186C6.62917 16.3269 5.91459 16.1665 5.97292 15.6561C6.00209 15.3936 6.36667 15.1311 7.05209 14.854C11.3104 13.0019 14.1396 11.7769 15.5542 11.1936C19.6083 9.50192 20.4396 9.21025 20.9938 9.21025C21.1104 9.21025 21.3875 9.23942 21.5625 9.38525C21.7083 9.50192 21.7521 9.66234 21.7667 9.779C21.7521 9.8665 21.7813 10.129 21.7667 10.3332Z" fill="white"/>
</svg>
