<svg width="36" height="34" viewBox="0 0 36 34" fill="none" xmlns="http://www.w3.org/2000/svg">
<path d="M5.20728 0.399863C6.55745 -0.0678168 8.0219 -0.126724 9.40726 0.230919C10.7926 0.588562 12.0337 1.34594 12.9667 2.40303C13.8997 3.46013 14.4807 4.76724 14.6329 6.15176C14.7852 7.53628 14.5016 8.93311 13.8195 10.1578L35.5 31.2193L32.6373 34L10.9549 12.9385C9.69374 13.599 8.25617 13.8729 6.8316 13.7241C5.40703 13.5752 4.06232 13.0106 2.97467 12.1047C1.88702 11.1987 1.10748 9.99389 0.73877 8.64901C0.370064 7.30413 0.4295 5.88229 0.909244 4.57087L5.43807 8.97C6.01081 9.50733 6.7779 9.80465 7.57413 9.79793C8.37036 9.79121 9.13202 9.48099 9.69506 8.93407C10.2581 8.38715 10.5775 7.64731 10.5844 6.87388C10.5913 6.10045 10.2852 5.35533 9.73205 4.79899L5.20728 0.399863ZM26.1954 4.10284L32.6373 0.626014L35.5 3.40865L31.9207 9.66615L28.3413 10.3603L24.0494 14.5314L21.1847 11.7507L25.4787 7.57966L26.1954 4.10284ZM12.5947 20.0947L15.4594 22.8753L4.72139 33.3038C4.35637 33.6594 3.86515 33.8659 3.34843 33.8809C2.83172 33.8959 2.32865 33.7184 1.94238 33.3847C1.55611 33.051 1.31589 32.5864 1.27098 32.0861C1.22607 31.5859 1.37986 31.0879 1.70083 30.6943L1.85874 30.5232L12.5947 20.0947Z" fill="#405AFF"/>
</svg>
