<svg width="36" height="24" viewBox="0 0 36 24" fill="none" xmlns="http://www.w3.org/2000/svg">
<path d="M8.16663 15.3333C9.12717 15.3331 10.0583 15.6647 10.8024 16.2722C11.5465 16.8796 12.0578 17.7254 12.25 18.6666H24V1.99992H5.66663C4.78257 1.99992 3.93472 2.35111 3.3096 2.97623C2.68448 3.60135 2.33329 4.4492 2.33329 5.33325V18.6666H4.08329C4.2754 17.7254 4.78678 16.8796 5.53087 16.2722C6.27497 15.6647 7.20608 15.3331 8.16663 15.3333ZM8.16663 23.6666C7.20608 23.6668 6.27497 23.3351 5.53087 22.7277C4.78678 22.1202 4.2754 21.2744 4.08329 20.3333H0.666626V5.33325C0.666626 4.00717 1.19341 2.7354 2.13109 1.79772C3.06877 0.860036 4.34054 0.333252 5.66663 0.333252H24C24.442 0.333252 24.8659 0.508847 25.1785 0.821408C25.491 1.13397 25.6666 1.55789 25.6666 1.99992V5.33325H30.6666L35.6666 11.9999V20.3333H32.25C32.0587 21.2752 31.5477 22.122 30.8035 22.7302C30.0593 23.3385 29.1278 23.6708 28.1666 23.6708C27.2055 23.6708 26.2739 23.3385 25.5297 22.7302C24.7856 22.122 24.2746 21.2752 24.0833 20.3333H12.25C12.0578 21.2744 11.5465 22.1202 10.8024 22.7277C10.0583 23.3351 9.12717 23.6668 8.16663 23.6666ZM8.16663 16.9999C7.50358 16.9999 6.8677 17.2633 6.39886 17.7322C5.93002 18.201 5.66663 18.8369 5.66663 19.4999C5.66663 20.163 5.93002 20.7988 6.39886 21.2677C6.8677 21.7365 7.50358 21.9999 8.16663 21.9999C8.82967 21.9999 9.46555 21.7365 9.93439 21.2677C10.4032 20.7988 10.6666 20.163 10.6666 19.4999C10.6666 18.8369 10.4032 18.201 9.93439 17.7322C9.46555 17.2633 8.82967 16.9999 8.16663 16.9999ZM28.1666 15.3333C29.1272 15.3331 30.0583 15.6647 30.8024 16.2722C31.5465 16.8796 32.0579 17.7254 32.25 18.6666H34V12.5333L33.6 11.9999H25.6666V16.1666C26.3666 15.6499 27.2333 15.3333 28.1666 15.3333ZM28.1666 16.9999C27.5036 16.9999 26.8677 17.2633 26.3989 17.7322C25.93 18.201 25.6666 18.8369 25.6666 19.4999C25.6666 20.163 25.93 20.7988 26.3989 21.2677C26.8677 21.7365 27.5036 21.9999 28.1666 21.9999C28.8297 21.9999 29.4655 21.7365 29.9344 21.2677C30.4032 20.7988 30.6666 20.163 30.6666 19.4999C30.6666 18.8369 30.4032 18.201 29.9344 17.7322C29.4655 17.2633 28.8297 16.9999 28.1666 16.9999ZM25.6666 6.99992V10.3333H32.3333L29.8333 6.99992H25.6666Z" fill="#405AFF"/>
</svg>
