<svg width="34" height="36" viewBox="0 0 34 36" fill="none" xmlns="http://www.w3.org/2000/svg">
<path d="M16.125 0.5C13.3148 0.540833 7.2773 1.00167 3.90417 4.09771C1.39875 6.60604 0.515004 10.2708 0.423129 14.8165C0.331254 19.3621 0.21167 27.8817 8.425 30.1917H8.42938L8.42355 33.715C8.42355 33.715 8.36959 35.1398 9.31313 35.4315C10.4463 35.7844 11.1127 34.7023 12.2006 33.5327C12.7942 32.891 13.6181 31.9519 14.2379 31.2285C19.8525 31.704 24.1721 30.6219 24.665 30.4629C25.7967 30.0954 32.2133 29.2729 33.2575 20.7548C34.3367 11.9756 32.7325 6.41938 29.845 3.91687C28.9758 3.11479 25.4613 0.562708 17.6315 0.529167C17.6315 0.529167 17.0554 0.492708 16.1192 0.504375L16.125 0.5ZM16.2096 2.96896C17.0044 2.96313 17.4929 2.99375 17.4929 2.99375C24.1167 3.02292 27.2885 5.01792 28.025 5.68583C30.4677 7.77854 31.7146 12.785 30.8046 20.119V20.1219C29.9238 27.2356 24.7175 27.6819 23.7579 27.9896C23.3496 28.1208 19.555 29.0644 14.7848 28.7538C14.7848 28.7538 11.2323 33.0412 10.1225 34.1554C9.9475 34.3304 9.74334 34.399 9.60917 34.3654C9.41959 34.3173 9.36709 34.0913 9.36855 33.7617L9.39771 27.9021C2.45313 25.9771 2.85709 18.7263 2.9373 14.9302C3.01605 11.1327 3.72917 8.02062 5.84813 5.92792C8.70646 3.34229 13.831 2.985 16.2169 2.9675L16.2096 2.96896ZM16.7638 6.76354C16.6507 6.76924 16.5441 6.81798 16.4658 6.89977C16.3875 6.98155 16.3435 7.09019 16.3428 7.20339C16.342 7.3166 16.3846 7.4258 16.4618 7.50861C16.539 7.59142 16.6449 7.64156 16.7579 7.64875C19.1263 7.66333 21.0542 8.43188 22.6321 9.97042C24.1969 11.4958 24.9946 13.5696 25.0135 16.2908C25.0165 16.5344 25.2177 16.7283 25.4613 16.7283C25.5778 16.7268 25.6891 16.6794 25.771 16.5964C25.8529 16.5135 25.8988 16.4016 25.8988 16.285C25.8783 13.3917 24.9975 11.0408 23.2504 9.3375C21.515 7.64583 19.3231 6.78104 16.7638 6.76354ZM10.9888 7.77708C10.6787 7.73404 10.3631 7.79399 10.0904 7.94771L10.0758 7.95063C9.44875 8.31083 8.88584 8.77021 8.40459 9.30979L8.39292 9.32146C8.00403 9.79201 7.78042 10.2528 7.72209 10.704C7.71072 10.7714 7.70729 10.8399 7.71188 10.9081C7.71188 11.1074 7.74348 11.3019 7.80667 11.4915L7.82563 11.506C8.0225 12.206 8.51542 13.3669 9.58292 15.3035C10.1954 16.4235 10.8998 17.491 11.6917 18.4915C12.0854 18.9941 12.5083 19.4724 12.9604 19.9265L13.1529 20.119C13.606 20.5691 14.0843 20.992 14.5879 21.3877C15.5891 22.1799 16.6555 22.8858 17.7758 23.4979C19.7125 24.5669 20.8763 25.0583 21.5733 25.2567L21.5879 25.2771C21.8419 25.3589 22.1102 25.3863 22.3754 25.3573C22.8285 25.3038 23.2893 25.0802 23.7579 24.6865C23.7638 24.6865 23.7623 24.6835 23.7696 24.6792C24.3092 24.1979 24.7656 23.6292 25.1258 23.005L25.1302 22.9904C25.4583 22.3604 25.349 21.7625 24.8677 21.3571C24.8619 21.3571 23.8498 20.5113 23.3554 20.1467C22.8304 19.7743 22.2894 19.4292 21.7323 19.1113C20.9885 18.6956 20.2273 18.9567 19.9123 19.365L19.2604 20.1875C18.925 20.6002 18.3023 20.5463 18.3023 20.5463C13.7523 19.3854 12.5346 14.7785 12.5346 14.7785C12.5346 14.7785 12.4806 14.1573 12.8963 13.8219L13.7173 13.1685C14.1213 12.855 14.3823 12.0938 13.9652 11.3485C13.6479 10.7893 13.3023 10.2466 12.9298 9.7225C12.5383 9.20989 12.1347 8.70662 11.7194 8.21313C11.5367 7.98391 11.2762 7.82977 10.9873 7.78L10.9888 7.77708ZM17.5367 9.06042C17.4195 9.05694 17.3057 9.10015 17.2204 9.18056C17.135 9.26096 17.0852 9.37197 17.0817 9.48917C17.0782 9.60636 17.1214 9.72013 17.2018 9.80546C17.2822 9.89079 17.3932 9.94069 17.5104 9.94417C19.2021 10.0681 20.4519 10.6238 21.3677 11.6213C22.2865 12.6246 22.724 13.8438 22.689 15.3692C22.6953 15.4813 22.7438 15.5869 22.8246 15.665C22.9054 15.743 23.0127 15.7876 23.125 15.79C23.2373 15.7924 23.3464 15.7524 23.4304 15.6779C23.5145 15.6034 23.5674 15.4999 23.5785 15.3881C23.615 13.6746 23.0915 12.19 22.0225 11.0219C20.9433 9.84063 19.431 9.19458 17.5746 9.05896H17.5396L17.5367 9.06042ZM18.2119 11.4375C18.0996 11.4391 17.9921 11.4832 17.9109 11.5608C17.8298 11.6385 17.781 11.7439 17.7744 11.856C17.7627 12.0996 17.9494 12.3081 18.1944 12.3227C18.9571 12.3635 19.4704 12.5779 19.8175 12.9381C20.1675 13.2954 20.3833 13.8423 20.4242 14.6356C20.4392 14.7456 20.4949 14.8459 20.5803 14.9168C20.6657 14.9876 20.7745 15.0239 20.8854 15.0184C20.9962 15.0129 21.101 14.9661 21.1789 14.8871C21.2569 14.8081 21.3024 14.7028 21.3065 14.5919C21.2627 13.6527 20.9929 12.874 20.4606 12.3213C19.9254 11.77 19.1583 11.4842 18.244 11.436H18.2177L18.2119 11.4375Z" fill="white"/>
</svg>
